<svg xmlns="http://www.w3.org/2000/svg" viewBox="0 0 49 49"><defs><style>.cls-1{fill:none;stroke:#9adbe8;stroke-miterlimit:10;stroke-width:2px;}.cls-2{fill:#00587c;}</style></defs><title>Asset 2</title><g id="Layer_2" data-name="Layer 2"><g id="Layer_1-2" data-name="Layer 1"><circle class="cls-1" cx="24.5" cy="24.5" r="23.5"/><path class="cls-2" d="M37.36,35.68l-1.95,1.95a3.59,3.59,0,0,1-1.4.56,23,23,0,0,1-23.2-23.25,3.63,3.63,0,0,1,.57-1.34l1.95-1.95a3.26,3.26,0,0,1,3-.72l.41.14A3.85,3.85,0,0,1,19,13.42L20,17a3.53,3.53,0,0,1-.81,3.08l-1.3,1.3a13.83,13.83,0,0,0,9.72,9.72l1.3-1.3A3.53,3.53,0,0,1,32,29l3.6,1a3.86,3.86,0,0,1,2.35,2.22l.14.42A3.26,3.26,0,0,1,37.36,35.68Z"/></g></g></svg>